<svg width="1024" height="768" xmlns="http://www.w3.org/2000/svg" xml:space="preserve" version="1.1">

 <g>
  <title>Layer 1</title>
  <path transform="rotate(-0.0674723 513 393.664)" stroke="null" fill="#529D94" id="svg_2" clip-rule="evenodd" fill-rule="evenodd" d="m857.47197,116.41291l21.57414,21.95814c5.66425,5.7954 4.24819,14.10215 -3.24862,18.4809l-22.9069,13.45821c4.16489,8.56432 6.83042,17.70818 7.91329,27.04521l26.07222,2.76891c9.32936,0.9659 15.82659,7.66281 14.57712,14.87487l-4.83127,27.36718c-1.24947,7.21206 -9.91244,12.29913 -19.2418,11.26884l-28.48786,-3.02649c-5.08117,8.56432 -11.5784,16.42031 -19.2418,23.43919l15.99318,16.22713c5.66425,5.7954 4.16489,14.10215 -3.33191,18.4809l-28.40456,16.67788c-7.4968,4.37875 -18.24222,3.21967 -23.90648,-2.51134l-17.40925,-17.70818c-11.16191,3.21967 -22.9069,5.28026 -35.06838,6.11737l-3.58181,20.15512c-1.24947,7.21206 -9.91244,12.23474 -19.2418,11.26884l-35.40158,-3.73482c-9.32936,-0.9659 -15.82659,-7.66281 -14.57712,-14.87487l3.915,-22.02253c-10.99531,-3.928 -21.24095,-8.95068 -30.32041,-14.81047l-20.99105,12.29913c-7.4968,4.37875 -18.24222,3.28406 -23.90648,-2.51134l-21.57414,-21.95814c-5.66425,-5.7954 -4.24819,-14.10215 3.24862,-18.4809l22.9069,-13.45821c-4.16489,-8.62871 -6.83042,-17.70818 -7.91329,-27.04521l-26.07222,-2.76891c-9.32936,-0.9659 -15.90988,-7.66281 -14.57712,-14.87487l4.83127,-27.36718c1.33277,-7.21206 9.91244,-12.23474 19.2418,-11.26884l28.48786,3.02649c5.08117,-8.49992 11.5784,-16.42031 19.1585,-23.43919l-15.90988,-16.22713c-5.66425,-5.73101 -4.24819,-14.03775 3.24862,-18.4165l28.40456,-16.67788c7.4968,-4.37875 18.24222,-3.28406 23.90648,2.51134l17.40925,17.70818c11.07861,-3.21967 22.9069,-5.28026 34.98509,-6.11737l3.58181,-20.15512c1.24947,-7.21206 9.91244,-12.29913 19.2418,-11.33323l35.40158,3.73482c9.32936,0.9659 15.90988,7.66281 14.57712,14.87487l-3.915,22.02253c11.07861,3.928 21.24095,8.95068 30.40371,14.87487l20.99105,-12.29913c7.4968,-4.44314 18.24222,-3.34846 23.98977,2.44695l0,0l0,0zm-609.07369,386.4246l0,-106.24906l70.80315,0c13.16106,0 23.1568,0.83711 30.07051,2.64013c6.91372,1.73862 12.57797,4.95829 16.74286,9.65901c4.24819,4.76511 6.41393,10.49612 6.41393,17.25742c0,5.8598 -1.66596,11.01127 -4.91457,15.26123c-3.24862,4.31436 -7.7467,7.7916 -13.41095,10.43173c-3.58181,1.67423 -8.57968,3.09088 -14.91031,4.18557c5.08117,1.35226 8.74627,2.57573 10.99531,3.928c1.58266,0.90151 3.8317,2.76891 6.74712,5.60222c2.91542,2.83331 4.91457,5.08708 5.91415,6.63252l20.65786,30.71564l-47.97955,0l-22.65701,-32.38986c-2.91542,-4.18557 -5.41436,-6.95448 -7.6634,-8.17796c-3.08202,-1.60983 -6.58053,-2.44695 -10.41223,-2.44695l-3.7484,0l0,43.01477l-42.64849,0l0,-0.06439zm149.76949,185.00215l-79.29953,0l-11.4118,28.84823l-71.46953,0l85.21367,-175.08557l76.634,0l84.88048,175.08557l-73.30209,0l-11.24521,-28.84823l0,0zm-14.82701,-37.92769l-24.73945,-62.97671l-24.82275,62.97671l49.56221,0l0,0zm115.86727,-108.30964l116.45036,0c25.40584,0 44.39774,4.63632 56.97571,13.97336c12.57797,9.33704 18.90861,22.66647 18.90861,39.85949c0,17.70818 -6.91372,31.55275 -20.65786,41.53372c-13.74414,9.98097 -34.81849,14.93926 -63.05645,14.93926l-38.4003,0l0,64.77973l-70.22007,0l0,-175.08557l0,0zm70.22007,74.82509l17.24265,0c13.57755,0 23.1568,-1.80301 28.65445,-5.47344c5.49766,-3.60603 8.24648,-8.30674 8.24648,-13.90897c0,-5.47344 -2.41564,-10.17415 -7.16361,-13.97336c-4.74798,-3.79921 -13.74414,-5.73101 -26.9052,-5.73101l-20.07478,0l0,39.08677l0,0zm150.43587,-74.82509l70.22007,0l0,175.08557l-70.22007,0l0,-175.08557l0,0zm-428.8172,-101.87031l17.90903,0c1.91585,0 5.66425,-0.51515 11.24521,-1.48105c2.83213,-0.45075 5.16447,-1.54544 6.91372,-3.34846c1.83255,-1.80301 2.66553,-3.8636 2.66553,-6.18176c0,-3.41285 -1.41606,-6.11737 -4.24819,-7.92038c-2.83213,-1.86741 -8.07989,-2.76891 -15.82659,-2.76891l-18.65871,0l0,21.70056l0,0zm100.62377,-43.14356l113.70153,0l0,22.66647l-71.05304,0l0,16.93546l65.88858,0l0,21.63617l-65.88858,0l0,20.92784l73.13549,0l0,24.01873l-115.78398,0l0,-106.18466l0,0zm125.86301,71.09028l40.31615,-1.9318c0.83298,5.08708 2.66553,8.88628 5.33106,11.52641c4.41478,4.24996 10.66212,6.43934 18.74201,6.43934c5.99744,0 10.74542,-1.09469 13.99403,-3.28406c3.24862,-2.18937 4.91457,-4.76511 4.91457,-7.66281c0,-2.76891 -1.58266,-5.21586 -4.66468,-7.40524c-3.08202,-2.18937 -10.32893,-4.18557 -21.74073,-6.18176c-18.57541,-3.21967 -31.81977,-7.53402 -39.81636,-12.87867c-7.99659,-5.34465 -11.99489,-12.17035 -11.99489,-20.47709c0,-5.47344 2.08245,-10.62491 6.16404,-15.45441c4.08159,-4.8295 10.24563,-8.6931 18.49212,-11.46202c8.24648,-2.76891 19.49169,-4.12118 33.81892,-4.12118c17.57584,0 30.90349,2.51134 40.14955,7.59842c9.16276,5.08708 14.66042,13.07185 16.40967,24.14751l-39.89966,1.86741c-1.08287,-4.8295 -3.33191,-8.37114 -6.66383,-10.49612c-3.41521,-2.18937 -8.16319,-3.28406 -14.07733,-3.28406c-4.91457,0 -8.66297,0.83711 -11.16191,2.44695c-2.49893,1.60983 -3.7484,3.60603 -3.7484,5.92419c0,1.67423 1.08287,3.15528 3.08202,4.57193c1.99915,1.35226 6.66383,2.70452 14.16063,3.928c18.57541,3.09088 31.90307,6.24616 39.89966,9.40143c7.99659,3.15528 13.91074,7.08327 17.49254,11.78399c3.6651,4.63632 5.49766,9.91658 5.49766,15.71198c0,6.8257 -2.41564,13.07185 -7.33021,18.80286c-4.83127,5.73101 -11.6617,10.10976 -20.40797,13.07185c-8.74627,2.96209 -19.74158,4.44314 -33.06924,4.44314c-23.32339,0 -39.56647,-3.47724 -48.56263,-10.43173c-8.99617,-7.08327 -14.07733,-15.90516 -15.3268,-26.59446l0,0zm130.86088,-71.09028l129.19493,0l0,26.27249l-43.31487,0l0,79.97656l-42.48189,0l0,-79.97656l-43.39817,0l0,-26.27249l0,0zm-142.93907,-252.16443c-15.2435,-0.90151 -30.6536,-0.77272 -45.8971,0.38636c-46.89668,3.47724 -92.46058,16.67788 -130.1112,39.27995c-43.56476,26.07931 -76.634,65.10169 -89.37857,116.80957l-3.9983,16.16274l-20.82446,2.83331c-20.40797,2.76891 -38.65019,6.56812 -54.64337,11.39763c-15.4934,4.63632 -29.32083,10.36733 -41.39902,17.12864c-9.66255,5.40904 -17.99233,11.46202 -25.07265,18.03014c-21.90733,20.28391 -32.06966,45.71929 -31.81977,71.47664c0.24989,26.14371 11.24521,52.54499 31.56988,74.24555c7.5801,8.04917 16.32637,15.45441 26.32211,21.89375c10.16233,6.50373 21.57414,11.91277 34.402,15.96956c7.24691,2.31816 14.99361,4.24996 23.0735,5.7954l0,48.23063c-16.65956,-2.31816 -31.98636,-5.7954 -46.31359,-10.36733c-18.90861,-6.05298 -35.65147,-13.84457 -50.39518,-23.37479c-13.99403,-9.01507 -26.23881,-19.25362 -36.65104,-30.39367c-27.73818,-29.62095 -42.73178,-65.81002 -43.06498,-101.87031c-0.33319,-36.44665 14.32723,-72.70011 45.9804,-102.06349c10.24563,-9.53022 22.32382,-18.28772 36.15126,-26.01492c16.07648,-9.01507 34.4853,-16.61349 55.30976,-22.85965c14.32723,-4.31436 29.65403,-7.92038 45.8138,-10.81809c18.32552,-56.2798 57.3922,-99.61654 107.62079,-129.68824c46.97997,-28.1399 103.5392,-44.56021 161.76437,-48.87457c30.5703,-2.25377 61.55709,-1.22347 91.8775,3.15528c-0.66638,2.12498 -1.24947,4.24996 -1.58266,6.43934l-0.0833,0.38636c-0.58308,3.67042 -0.83298,7.34084 -0.58308,11.07566c-6.41393,1.9318 -12.41138,4.57193 -17.82573,7.7916l-0.24989,0.12879c-8.07989,4.70072 -14.91031,10.75369 -19.99148,17.70818l0,0zm440.72879,123.63527c4.66468,3.28406 9.16276,6.69691 13.57755,10.36733c8.91287,7.40524 17.32595,15.77638 25.23924,25.11341c26.6553,31.68154 40.31615,73.98798 39.73306,115.39292c-0.58308,40.63222 -14.74371,81.07125 -43.73136,110.82099c-18.90861,19.3824 -43.14827,35.22317 -72.21921,47.77988c-19.90818,8.62871 -42.31529,15.77638 -66.72156,21.57178l0,-49.90486c13.16106,-3.79921 25.40584,-8.04917 36.65104,-12.87867c21.90733,-9.46583 39.81636,-20.99224 53.22731,-34.83681c20.82446,-21.44299 31.07009,-51.77227 31.48658,-82.87426c0.49979,-32.64744 -9.82914,-65.42366 -29.90392,-89.24921c-5.74755,-6.89009 -12.07818,-13.07185 -18.74201,-18.60968c-2.58223,-2.12498 -5.16447,-4.12118 -7.83,-6.05298c0.41649,-3.21967 0.58308,-6.50373 0.33319,-9.78779c6.41393,-1.9318 12.41138,-4.57193 17.82573,-7.7916l0.24989,-0.12879c8.57968,-5.08708 15.74329,-11.52641 20.82446,-18.93165l0,0zm-211.24328,-115.00655c38.4003,4.05678 65.2222,31.42396 59.97443,61.10931c-5.24776,29.68534 -40.64934,50.4844 -79.04964,46.42762c-38.4003,-4.05678 -65.30549,-31.42396 -59.97443,-61.10931c5.33106,-29.68534 40.64934,-50.4844 79.04964,-46.42762l0,0l0,0z" class="st0"/>
 </g>
</svg>